# File created by Blade
# Date/Time:  Wed Jan 21 17:41:14 2015
# Frame Rate: 120.000 fps
#------------------------------------------------------
:FULLY-SPECIFIED
:DEGREES
378
root 7.411467 35.441936 -23.913352 -268.341383 84.963173 -346.440967
Spine 74.943123 0.516348 -1.112044
Head -27.677742 -1.457495 5.154571
LeftShoulder 2.253321 -59.935674 32.907481
LeftArm 53.717848 -2.106209 -8.945831
LeftForeArm 3.493061 -0.000000 1.723967
LeftHand 2.979387 -0.000000 41.534064
LeftHandThumb1 -26.253704 0.000000 33.147579
RightShoulder 4.719409 15.310052 -28.955418
RightArm 56.259371 53.252945 18.579274
RightForeArm -26.952552 -0.000000 20.271271
RightHand -4.379879 -0.000000 -43.813345
RightHandThumb1 -24.326973 -0.000000 -32.862282
LeftUpLeg -85.993856 -2.689534 -5.904990
LeftLeg -0.084724 -0.000000 0.000000
LeftFoot -6.894546 31.890598 -6.876837
LeftToeBase 21.247635 -0.000000 -0.000000
RightUpLeg -87.212806 -0.246721 -1.558398
RightLeg -1.023241 -0.000000 0.000000
RightFoot -5.114778 -26.322880 6.792458
RightToeBase 24.499945 -0.000000 -0.000000
379
root 7.426368 35.444115 -23.917485 -268.465298 84.919360 -346.473731
Spine 75.223770 0.497851 -1.062949
Head -27.317098 -1.506863 5.207820
LeftShoulder 2.404603 -59.948755 32.873156
LeftArm 53.582281 -2.269058 -8.973056
LeftForeArm 3.460158 0.000000 1.645903
LeftHand 3.266065 0.000000 41.238516
LeftHandThumb1 -26.253704 0.000000 33.147579
RightShoulder 4.704688 15.292314 -28.997350
RightArm 56.434198 53.304541 18.582921
RightForeArm -26.851104 -0.000000 20.010783
RightHand -4.330856 -0.000000 -43.586654
RightHandThumb1 -24.326973 -0.000000 -32.862282
LeftUpLeg -85.876531 -2.683491 -6.006586
LeftLeg -0.067181 -0.000000 0.000000
LeftFoot -6.920713 31.814475 -6.847961
LeftToeBase 21.313951 -0.000000 -0.000000
RightUpLeg -87.124493 -0.252887 -1.499511
RightLeg -0.980067 -0.000000 0.000000
RightFoot -5.175349 -26.260042 6.760974
RightToeBase 24.644129 -0.000000 -0.000000
380
root 7.434695 35.446923 -23.921365 -268.524250 84.856440 -346.479643
Spine 75.399274 0.495107 -1.042820
Head -26.830243 -1.509208 5.251385
LeftShoulder 2.664082 -59.970103 32.791110
LeftArm 53.358994 -2.380091 -8.999198
LeftForeArm 3.225593 -0.000000 1.717016
LeftHand 3.183935 -0.000000 41.196980
LeftHandThumb1 -26.253704 0.000000 33.147579
RightShoulder 4.753739 15.249476 -28.968523
RightArm 56.453603 53.324161 18.373478
RightForeArm -26.650842 0.000000 19.761631
RightHand -4.358121 -0.000000 -43.268393
RightHandThumb1 -24.326973 -0.000000 -32.862282
LeftUpLeg -85.815225 -2.683171 -6.123274
LeftLeg -0.030028 -0.000000 0.000000
LeftFoot -6.955742 31.737736 -6.864474
LeftToeBase 21.327429 -0.000000 -0.000000
RightUpLeg -87.102968 -0.255201 -1.465091
RightLeg -0.916057 -0.000000 0.000000
RightFoot -5.192635 -26.193009 6.822831
RightToeBase 24.467063 -0.000000 -0.000000
381
root 7.442427 35.449098 -23.925866 -268.545471 84.798757 -346.445775
Spine 75.551042 0.478726 -1.030455
Head -26.335499 -1.542438 5.283626
LeftShoulder 2.921311 -59.986940 32.702611
LeftArm 53.097864 -2.511140 -9.062628
LeftForeArm 3.268092 -0.000000 1.851801
LeftHand 3.042559 -0.000000 40.863916
LeftHandThumb1 -26.253704 0.000000 33.147579
RightShoulder 4.807358 15.247305 -28.947413
RightArm 56.566463 53.328099 18.321395
RightForeArm -26.664905 -0.000000 19.548230
RightHand -4.327274 -0.000000 -42.891696
RightHandThumb1 -24.326973 -0.000000 -32.862282
LeftUpLeg -85.754655 -2.689684 -6.217843
LeftLeg 0.005873 -0.000000 -0.000000
LeftFoot -6.983620 31.675100 -6.884509
LeftToeBase 21.323601 -0.000000 -0.000000
RightUpLeg -87.074527 -0.263553 -1.466658
RightLeg -0.858922 -0.000000 0.000000
RightFoot -5.218524 -26.176325 6.834775
RightToeBase 24.494427 -0.000000 -0.000000
382
root 7.449693 35.451019 -23.929423 -268.650043 84.748324 -346.492629
Spine 75.700413 0.461484 -1.032158
Head -25.896886 -1.550375 5.309434
LeftShoulder 3.192682 -60.023745 32.581965
LeftArm 52.900235 -2.556052 -8.996146
LeftForeArm 3.188191 0.000000 1.744912
LeftHand 3.085571 -0.000000 40.558805
LeftHandThumb1 -26.253704 0.000000 33.147579
RightShoulder 4.814643 15.186262 -28.980307
RightArm 56.980590 53.448227 18.587604
RightForeArm -26.639765 -0.000000 19.222436
RightHand -4.111918 -0.000000 -42.536532
RightHandThumb1 -24.326973 -0.000000 -32.862282
LeftUpLeg -85.687851 -2.689838 -6.277384
LeftLeg 0.033001 -0.000000 -0.000000
LeftFoot -7.006866 31.646708 -6.887003
LeftToeBase 21.330242 -0.000000 -0.000000
RightUpLeg -87.039116 -0.265091 -1.464680
RightLeg -0.805525 -0.000000 0.000000
RightFoot -5.241091 -26.155738 6.838120
RightToeBase 24.449658 -0.000000 -0.000000
383
root 7.453273 35.452476 -23.933907 -268.685680 84.708733 -346.483512
Spine 75.806759 0.432077 -1.024337
Head -25.496402 -1.544599 5.278946
LeftShoulder 3.486312 -60.052191 32.436315
LeftArm 52.672715 -2.635211 -8.965258
LeftForeArm 3.027555 -0.000000 1.722223
LeftHand 2.990174 -0.000000 40.228702
LeftHandThumb1 -26.253704 0.000000 33.147579
RightShoulder 4.911816 15.202694 -28.974478
RightArm 56.757397 53.380354 18.219793
RightForeArm -26.454119 -0.000000 19.170125
RightHand -4.259556 -0.000000 -42.169608
RightHandThumb1 -24.326973 -0.000000 -32.862282
LeftUpLeg -85.651520 -2.696114 -6.321024
LeftLeg 0.077839 -0.000000 -0.000000
LeftFoot -7.031636 31.616583 -6.884140
LeftToeBase 21.312443 -0.000000 -0.000000
RightUpLeg -87.032122 -0.270078 -1.465782
RightLeg -0.726297 -0.000000 0.000000
RightFoot -5.303820 -26.140810 6.847415
RightToeBase 24.501216 -0.000000 -0.000000
384
root 7.457238 35.453382 -23.938023 -268.687768 84.679771 -346.433761
Spine 75.909529 0.399185 -1.010730
Head -25.089913 -1.599499 5.311549
LeftShoulder 3.815435 -60.104590 32.242447
LeftArm 52.458253 -2.670032 -8.865852
LeftForeArm 2.857438 -0.000000 1.660664
LeftHand 2.825298 0.000000 39.760992
LeftHandThumb1 -26.253704 0.000000 33.147579
RightShoulder 5.004451 15.182329 -28.990146
RightArm 56.573180 53.372478 17.937368
RightForeArm -26.287380 0.000000 19.170894
RightHand -4.377790 -0.000000 -41.568294
RightHandThumb1 -24.326973 -0.000000 -32.862282
LeftUpLeg -85.607114 -2.707465 -6.335319
LeftLeg 0.117709 -0.000000 -0.000000
LeftFoot -7.059548 31.627368 -6.906419
LeftToeBase 21.263497 -0.000000 -0.000000
RightUpLeg -87.004659 -0.278708 -1.462147
RightLeg -0.676566 -0.000000 0.000000
RightFoot -5.330167 -26.156020 6.789704
RightToeBase 24.611025 -0.000000 -0.000000
385
root 7.461107 35.454547 -23.941614 -268.783889 84.654078 -346.486517
Spine 76.016395 0.365393 -1.022449
Head -24.806639 -1.571898 5.318217
LeftShoulder 3.934159 -60.063275 32.217011
LeftArm 52.323325 -2.798211 -8.821994
LeftForeArm 2.804133 -0.000000 1.531114
LeftHand 2.647063 -0.000000 39.262682
LeftHandThumb1 -26.253704 0.000000 33.147579
RightShoulder 5.028642 15.118277 -29.028332
RightArm 56.679172 53.438564 17.923627
RightForeArm -26.102707 -0.000000 19.104037
RightHand -4.470455 -0.000000 -41.036428
RightHandThumb1 -24.326973 -0.000000 -32.862282
LeftUpLeg -85.569040 -2.709498 -6.341327
LeftLeg 0.149071 -0.000000 -0.000000
LeftFoot -7.072428 31.595331 -6.890444
LeftToeBase 21.352754 -0.000000 -0.000000
RightUpLeg -86.989164 -0.278403 -1.454855
RightLeg -0.617740 -0.000000 0.000000
RightFoot -5.370747 -26.143697 6.842162
RightToeBase 24.526839 -0.000000 -0.000000
386
root 7.463046 35.455124 -23.945689 -268.868804 84.634622 -346.548050
Spine 76.093059 0.363105 -0.991086
Head -24.643079 -1.538453 5.384118
LeftShoulder 4.005158 -60.008663 32.234537
LeftArm 52.249054 -2.993223 -8.871803
LeftForeArm 2.840103 -0.000000 1.387517
LeftHand 2.553638 0.000000 38.097667
LeftHandThumb1 -26.253704 0.000000 33.147579
RightShoulder 5.014835 15.038444 -29.026191
RightArm 56.673205 53.499664 17.758232
RightForeArm -25.994009 -0.000000 19.026037
RightHand -4.518019 -0.000000 -40.620591
RightHandThumb1 -24.326973 -0.000000 -32.862282
LeftUpLeg -85.553336 -2.712013 -6.361681
LeftLeg 0.179293 -0.000000 -0.000000
LeftFoot -7.103284 31.588067 -6.911367
LeftToeBase 21.308824 -0.000000 -0.000000
RightUpLeg -86.987086 -0.280870 -1.434988
RightLeg -0.578953 -0.000000 0.000000
RightFoot -5.388020 -26.128500 6.819610
RightToeBase 24.698803 -0.000000 -0.000000
387
root 7.465149 35.455650 -23.948892 -268.936282 84.630682 -346.577098
Spine 76.179696 0.346707 -0.953690
Head -24.497228 -1.548256 5.434776
LeftShoulder 4.086858 -59.965613 32.214058
LeftArm 52.240747 -3.053262 -8.766622
LeftForeArm 2.621463 -0.000000 1.100956
LeftHand 2.530562 -0.000000 37.523440
LeftHandThumb1 -26.253704 0.000000 33.147579
RightShoulder 5.004992 15.000254 -29.037928
RightArm 56.598439 53.513595 17.525231
RightForeArm -25.899365 -0.000000 18.962962
RightHand -4.678558 0.000000 -40.099999
RightHandThumb1 -24.326973 -0.000000 -32.862282
LeftUpLeg -85.525143 -2.714638 -6.386120
LeftLeg 0.208017 -0.000000 -0.000000
LeftFoot -7.122804 31.590295 -6.893897
LeftToeBase 21.269204 -0.000000 -0.000000
RightUpLeg -86.949851 -0.283299 -1.410530
RightLeg -0.575246 -0.000000 0.000000
RightFoot -5.396881 -26.087588 6.931775
RightToeBase 24.553019 -0.000000 -0.000000
388
root 7.468645 35.455795 -23.952391 -269.006986 84.629709 -346.595680
Spine 76.274955 0.332319 -0.923882
Head -24.341934 -1.555029 5.514366
LeftShoulder 4.114963 -59.913970 32.259491
LeftArm 52.215396 -3.140618 -8.718160
LeftForeArm 2.397523 -0.000000 0.841020
LeftHand 2.440003 -0.000000 37.056988
LeftHandThumb1 -26.253704 0.000000 33.147579
RightShoulder 5.011084 14.991453 -29.038011
RightArm 56.456626 53.500140 17.214763
RightForeArm -25.840198 -0.000000 18.869325
RightHand -4.796214 -0.000000 -39.730546
RightHandThumb1 -24.326973 -0.000000 -32.862282
LeftUpLeg -85.472379 -2.713415 -6.434056
LeftLeg 0.221116 -0.000000 -0.000000
LeftFoot -7.117548 31.545748 -6.857399
LeftToeBase 21.239349 -0.000000 -0.000000
RightUpLeg -86.886985 -0.289825 -1.364372
RightLeg -0.588427 -0.000000 0.000000
RightFoot -5.401203 -26.076566 6.886396
RightToeBase 24.606124 -0.000000 -0.000000
